<?xml version="1.0" encoding="UTF-8" standalone="no"?>
<svg
   xmlns:dc="http://purl.org/dc/elements/1.1/"
   xmlns:cc="http://creativecommons.org/ns#"
   xmlns:rdf="http://www.w3.org/1999/02/22-rdf-syntax-ns#"
   xmlns:svg="http://www.w3.org/2000/svg"
   xmlns="http://www.w3.org/2000/svg"
   xmlns:sodipodi="http://sodipodi.sourceforge.net/DTD/sodipodi-0.dtd"
   xmlns:inkscape="http://www.inkscape.org/namespaces/inkscape"
   sodipodi:docname="Arabic symbol Allah.svg"
   version="1.0"
   inkscape:version="1.0 (4035a4fb49, 2020-05-01)"
   sodipodi:version="0.32"
   id="svg4611"
   height="400"
   width="400">
  <defs
     id="defs4613" />
  <sodipodi:namedview
     inkscape:window-maximized="1"
     showgrid="false"
     inkscape:document-rotation="0"
     height="400px"
     width="400px"
     inkscape:window-y="-8"
     inkscape:window-x="-8"
     inkscape:window-height="1017"
     inkscape:window-width="1920"
     inkscape:grid-points="true"
     inkscape:object-nodes="true"
     inkscape:object-points="true"
     inkscape:object-bbox="true"
     inkscape:current-layer="layer1"
     inkscape:document-units="px"
     inkscape:cy="190.61883"
     inkscape:cx="415.90919"
     inkscape:zoom="0.7"
     inkscape:pageshadow="2"
     inkscape:pageopacity="0.0"
     objecttolerance="1.6"
     guidetolerance="10"
     gridtolerance="10000"
     borderopacity="1.0"
     bordercolor="#666666"
     pagecolor="#ffffff"
     id="base" />
  <metadata
     id="metadata4616">
    <rdf:RDF>
      <cc:Work
         rdf:about="">
        <dc:format>image/svg+xml</dc:format>
        <dc:type
           rdf:resource="http://purl.org/dc/dcmitype/StillImage" />
        <dc:title></dc:title>
      </cc:Work>
    </rdf:RDF>
  </metadata>
  <g
     transform="translate(-256.6798,-531.7963)"
     id="layer1"
     inkscape:groupmode="layer"
     inkscape:label="Layer 1">
    <g
       transform="translate(12.857143,52.857143)"
       style="font-style:normal;font-weight:normal;line-height:0%;font-family:'Times New Roman';text-align:start;text-anchor:start;fill:#000000;fill-opacity:1;stroke:none;stroke-width:1px;stroke-linecap:butt;stroke-linejoin:miter;stroke-opacity:1"
       id="text5540"
       aria-label="الله">
      <path
         id="path18"
         style="font-size:400px;line-height:1.25;text-align:center;text-anchor:middle"
         d="m 371.0827,690.56299 h -0.58593 q -1.5625,4.88281 -5.66407,9.375 -4.10156,4.49219 -8.59375,7.61719 l -35.74218,24.21875 v 0.58593 q 2.34375,0.97657 6.83593,2.34375 4.6875,1.36719 9.76563,2.53907 5.07812,1.17187 9.96094,2.14843 4.88281,0.78125 7.8125,0.78125 4.88281,0 9.375,-2.34375 4.6875,-2.34375 7.8125,-6.83593 z m 160.74219,44.72656 q 0,1.95313 -0.19531,4.49219 -0.19531,2.34375 -0.58594,4.88281 -0.19531,2.53906 -0.58594,4.88281 -0.39062,2.14844 -0.78125,3.51563 -0.78125,2.73437 -2.34375,7.8125 -1.5625,4.88281 -3.71093,9.76562 -1.95313,4.6875 -4.49219,8.39844 -2.53906,3.51563 -5.07813,3.51563 -8.20312,0 -16.79687,-1.75782 -8.59375,-1.95312 -16.40625,-5.85937 -7.8125,-4.10156 -14.25781,-10.54688 -6.44532,-6.64062 -10.15625,-16.01562 -3.90625,8.39844 -8.00782,16.01562 -3.90625,7.42188 -8.98437,13.08594 -5.07813,5.46875 -11.71875,8.78906 -6.44531,3.32032 -15.42969,3.32032 -9.375,0 -15.42969,-2.73438 -6.05468,-2.73437 -9.96093,-8.00781 -3.90625,-5.27344 -6.25,-12.89063 -2.34375,-7.61718 -4.29688,-17.38281 h -0.58594 q -11.71875,23.63281 -24.80468,23.63281 -9.375,0 -17.96875,-0.78125 -8.59375,-0.97656 -16.60157,-2.53906 -3.32031,-0.58594 -7.03125,-1.5625 -3.51562,-0.97656 -6.44531,-2.34375 -2.92969,-1.36719 -4.88281,-3.125 -1.95313,-1.95312 -1.95313,-4.49219 0,-2.73437 2.34375,-8.39843 2.53907,-5.66407 5.66407,-11.71875 3.32031,-6.25 6.44531,-11.71875 3.125,-5.46875 4.6875,-8.00782 1.36719,-2.14843 7.03125,-6.83593 5.85937,-4.6875 13.86719,-10.15625 8.20312,-5.46875 17.38281,-10.9375 9.17969,-5.46875 17.38281,-8.98438 0,-2.14844 -0.19531,-3.90625 0,-1.95312 0,-4.10156 0,-3.125 0.39062,-6.05469 0.39063,-3.125 1.36719,-6.05469 2.73438,-7.03125 7.03125,-11.91406 4.49219,-5.07812 9.57031,-9.375 h 0.39063 v 41.99219 q 0,10.74219 0.78125,22.85156 0.78125,11.91406 2.73437,22.46094 2.34375,13.67187 8.98438,19.53125 6.83594,5.66406 16.99219,5.66406 10.15625,0 17.1875,-6.25 7.03125,-6.25 14.25781,-17.57812 l -8.59375,-64.0625 q -0.39063,-3.125 -0.97656,-6.83594 -0.39063,-3.90625 -0.78125,-7.42188 -0.19532,-3.71093 -0.39063,-7.03125 -0.19531,-3.32031 -0.19531,-5.46875 0,-3.90625 1.17187,-8.39843 1.17188,-4.6875 4.29688,-9.57032 2.14844,-3.51562 5.46875,-6.44531 3.32031,-3.125 7.22656,-6.44531 h 0.19531 q 0.58594,6.83594 1.17188,13.47656 0.58594,6.64063 1.5625,13.47656 l 7.61719,62.89063 q 0.97656,7.42187 2.14843,14.84375 1.36719,7.22656 4.10157,11.91406 2.14843,3.90625 6.25,8.00781 4.29687,3.90625 9.375,7.22657 5.07812,3.125 10.35156,5.46875 5.46875,2.14843 10.15625,2.73437 3.90625,-1.36719 3.90625,-7.61719 -4.88281,-25.78125 -8.78906,-51.17187 -3.71094,-25.58594 -6.44532,-51.5625 -0.58593,-4.88281 -0.78125,-8.20313 -0.19531,-3.51562 -0.19531,-5.46875 0,-3.90625 1.17188,-8.39843 1.36718,-4.49219 4.10156,-9.17969 2.34375,-4.10156 4.88281,-7.22656 2.73438,-3.125 5.27344,-6.25 h 0.39062 q 0.19532,3.32031 0.58594,6.83593 0.58594,3.32032 1.17188,7.8125 0.78125,4.29688 1.5625,9.96094 0.78125,5.66406 1.75781,13.47656 l 9.375,65.03907 q 1.95312,13.47656 2.53906,24.60937 0.78125,11.13281 0.78125,16.40625 z m 60.9375,-1.95312 q 0,15.625 -5.66406,30.27343 -2.92969,7.8125 -12.69531,24.80469 l -3.51563,-1.95312 q 0.58594,-5.66407 0.97656,-13.08594 0.58594,-7.42188 0.58594,-9.96094 0,-20.3125 -3.32031,-56.64062 -3.125,-36.52344 -7.61719,-76.17188 -2.73437,-24.02344 -6.05469,-49.02344 3.90625,-8.59375 8.78907,-18.55468 5.07812,-9.96094 9.57031,-18.75 3.125,22.26562 7.8125,60.9375 4.88281,38.67187 7.61719,69.72656 3.51562,38.67187 3.51562,58.39844 z M 446.0827,535.87549 q 0,9.375 -6.64062,21.875 h -4.29688 q 0.39063,-3.125 0.58594,-5.85938 0.19531,-2.73437 0.19531,-4.10156 0,-11.71875 -6.64062,-23.04687 1.95312,-3.32032 4.10156,-6.83594 2.34375,-3.71094 5.07813,-7.8125 3.90625,7.42187 5.66406,14.45312 1.95312,6.83594 1.95312,11.32813 z m 27.92969,34.96094 q 0,5.66406 -0.97656,10.74218 -0.97656,4.88282 -3.51563,8.78907 -2.34375,3.90625 -6.44531,6.25 -3.90625,2.14843 -9.76562,2.14843 -3.51563,0 -6.44532,-0.97656 -2.92968,-1.17187 -6.64062,-3.32031 -3.90625,5.85937 -7.61719,8.98437 -6.05469,5.46875 -13.08594,5.46875 -8.20312,0 -12.30468,-3.71093 -4.10157,-3.71094 -4.10157,-12.30469 0,-4.49219 1.36719,-8.59375 1.36719,-4.10156 3.90625,-9.57031 l 4.10156,-1.5625 q 0,1.5625 -0.39062,4.49218 -0.39063,2.92969 -0.39063,5.07813 0,3.51562 1.75782,6.64062 1.75781,2.92969 5.27343,2.92969 8.39844,0 13.47657,-9.57031 1.17187,-2.14844 2.53906,-6.83594 1.5625,-4.88281 3.32031,-11.13281 h 4.10156 q 0.78125,4.29687 1.36719,6.83594 0.78125,2.34375 1.17188,3.32031 2.53906,5.66406 8.20312,5.66406 6.83594,0 11.32813,-8.20312 3.51562,-7.03125 3.51562,-14.64844 l 4.10156,-0.97656 q 0.78125,3.32031 1.36719,7.22656 0.78125,3.90625 0.78125,6.83594 z" />
    </g>
  </g>
</svg>
